:SAMPLES-PER-SECOND 30
:FULLY-SPECIFIED
:DEGREES
206
root  -3.80135 40.9049 -1.84207 -3.85379 -80.6344 5.25366
RightUpLeg  3.42026 -1.83644 1.21306
RightLeg  -3.90723 -32.1551 4.09308
RightFoot  -1.50782 0.0601453 -0.817179
RightToes  -3.10678e-008 1.75238e-005 3.56266e-009
Spine  8.42683 1.08348 -4.69352
Spine1  -8.49946 0.202184 7.30648
HEad  1.09237 2.93233 -2.27664
LeftShoulder1  0.522626 1.22182 -16.125
LeftArm  -17.5738 -26.451 -43.4267
LeftForeArm  127.391 -78.2991 -122.82
LeftHand  -0.548216 -3.71154 7.25287
RightShoulder  1.3221 1.69445 19.0249
RightArm  -2.03568 -7.57844 29.1174
RightForeArm  63.3983 78.8266 65.9562
RightHand  -0.328874 8.35253 -3.15115
LeftUpLeg  0.0595965 1.62188 4.15813
LeftLeg  -1.28831 7.4262 -0.680181
LeftFoot  1.63318 0.484933 -4.35152
LeftToes  4.7643e-008 1.47522e-008 1.32869e-009
207
root  -3.78293 40.8979 -1.91132 -4.2038 -79.8296 5.67404
RightUpLeg  3.32604 -1.9053 1.17673
RightLeg  -3.82018 -32.7687 4.06504
RightFoot  -1.61053 0.0424596 -0.627488
RightToes  -3.10678e-008 1.75238e-005 3.56266e-009
Spine  8.23117 2.16592 -4.44273
Spine1  -7.80777 1.27589 7.2503
HEad  2.03272 3.13972 -2.58318
LeftShoulder1  0.491525 1.35337 -16.0667
LeftArm  -19.8736 -26.9222 -41.5616
LeftForeArm  131.703 -77.4578 -128.217
LeftHand  -0.621436 -4.59298 7.513
RightShoulder  1.41939 1.98971 19.4588
RightArm  -1.48746 -7.93788 29.1322
RightForeArm  55.248 77.9648 57.9356
RightHand  -0.300312 8.24956 -2.94526
LeftUpLeg  -0.202917 1.54191 4.11694
LeftLeg  -1.27653 6.71268 -0.702195
LeftFoot  1.75942 0.498468 -4.43346
LeftToes  4.7643e-008 1.47522e-008 1.32869e-009
208
root  -3.76749 40.8882 -1.96679 -3.85367 -78.4185 5.39447
RightUpLeg  3.37158 -1.9835 1.1872
RightLeg  -4.02323 -33.9311 4.28338
RightFoot  -1.69838 0.0365623 -0.573011
RightToes  -3.10678e-008 1.75238e-005 3.56266e-009
Spine  8.46113 3.03053 -3.84425
Spine1  -7.9381 2.21743 6.77644
HEad  3.27093 3.12414 -2.46727
LeftShoulder1  0.437575 1.56487 -15.7577
LeftArm  -21.2238 -27.6289 -41.2451
LeftForeArm  134.163 -77.16 -130.103
LeftHand  -0.647033 -4.99926 7.52129
RightShoulder  1.483 2.11818 20.0186
RightArm  -1.49489 -8.65346 29.1572
RightForeArm  47.8672 76.6665 49.2566
RightHand  -0.193503 9.15896 -1.92895
LeftUpLeg  -0.682288 1.43573 4.08499
LeftLeg  -1.07442 5.43053 -0.643925
LeftFoot  1.84073 0.52332 -4.62539
LeftToes  4.7643e-008 1.47522e-008 1.32869e-009
209
root  -3.78267 40.8714 -2.02821 -3.61749 -76.5864 5.15445
RightUpLeg  3.63308 -2.09319 1.21919
RightLeg  -4.48207 -35.6508 4.67099
RightFoot  -1.84999 0.032901 -0.54825
RightToes  -3.10678e-008 1.75238e-005 3.56266e-009
Spine  8.30296 3.45802 -3.4336
Spine1  -7.48804 2.69259 6.35476
HEad  3.88446 3.45537 -2.35762
LeftShoulder1  0.42641 1.59879 -15.556
LeftArm  -22.3569 -28.2866 -40.8308
LeftForeArm  135.228 -76.9095 -131.372
LeftHand  -0.582022 -4.16053 7.33488
RightShoulder  1.69614 2.73292 20.9117
RightArm  -1.4145 -9.20552 28.864
RightForeArm  41.4645 75.2988 43.3223
RightHand  -0.276201 8.45017 -2.70031
LeftUpLeg  -1.16513 1.26813 3.999
LeftLeg  -0.706518 3.83338 -0.50991
LeftFoot  1.82841 0.540748 -4.77982
LeftToes  4.7643e-008 1.47522e-008 1.32869e-009
210
root  -3.80665 40.8579 -2.07491 -3.79395 -74.5973 5.22125
RightUpLeg  3.79577 -2.32454 1.1501
RightLeg  -4.28884 -37.3108 4.68348
RightFoot  -2.18607 0.0272785 -0.525891
RightToes  -3.10678e-008 1.75238e-005 3.56266e-009
Spine  8.71552 3.90114 -3.21558
Spine1  -7.73626 3.16878 6.18915
HEad  4.13569 4.09765 -2.36842
LeftShoulder1  0.400809 1.72758 -15.7401
LeftArm  -22.1457 -28.1718 -40.1144
LeftForeArm  135.354 -76.821 -131.745
LeftHand  -0.691425 -4.98836 8.03146
RightShoulder  1.75152 2.86805 21.2182
RightArm  -1.54536 -10.2579 29.1127
RightForeArm  36.3666 73.7459 38.2083
RightHand  -0.400199 7.89374 -3.85687
LeftUpLeg  -1.3813 1.06057 3.82458
LeftLeg  -0.650519 2.1071 -0.453066
LeftFoot  1.91015 0.564445 -4.9579
LeftToes  4.7643e-008 1.47522e-008 1.32869e-009
211
root  -3.84294 40.8503 -2.12155 -4.11398 -72.4934 5.46973
RightUpLeg  4.02693 -2.58551 1.01167
RightLeg  -4.28963 -39.0773 4.81037
RightFoot  -2.4247 0.00836873 -0.318384
RightToes  -3.10678e-008 1.75238e-005 3.56266e-009
Spine  8.76859 4.27027 -3.24512
Spine1  -7.78479 3.53651 6.25358
HEad  4.24759 3.97932 -2.02164
LeftShoulder1  0.45608 1.50143 -15.9846
LeftArm  -22.1353 -28.4005 -39.5811
LeftForeArm  135.007 -77.0483 -130.764
LeftHand  -0.585076 -4.36765 7.24084
RightShoulder  1.73788 2.82657 21.1806
RightArm  -2.20639 -11.4238 29.3614
RightForeArm  32.4217 71.5432 32.3738
RightHand  -0.395405 8.17289 -3.75252
LeftUpLeg  -1.53321 0.89162 3.61572
LeftLeg  -0.772539 0.231228 -0.486377
LeftFoot  2.12469 0.593163 -5.13249
LeftToes  4.7643e-008 1.47522e-008 1.32869e-009
212
root  -3.90258 40.8337 -2.16097 -4.09442 -69.9539 5.33176
RightUpLeg  4.32894 -2.7978 0.997893
RightLeg  -4.25061 -41.3554 4.90107
RightFoot  -2.73714 -0.0124367 -0.0827307
RightToes  -3.10678e-008 1.75238e-005 3.56266e-009
Spine  9.19707 4.35468 -3.01476
Spine1  -8.27996 3.68433 5.86495
HEad  4.39675 3.81019 -1.84777
LeftShoulder1  0.434446 1.58942 -15.8929
LeftArm  -22.5431 -28.8797 -39.456
LeftForeArm  134.062 -77.152 -130.105
LeftHand  -0.51483 -4.54279 6.30479
RightShoulder  1.66827 2.56263 21.2326
RightArm  -2.51512 -13.1445 29.1681
RightForeArm  29.6189 69.471 28.3466
RightHand  -0.380832 8.28436 -3.60435
LeftUpLeg  -1.85982 0.63965 3.40474
LeftLeg  -0.544775 -2.02393 -0.38314
LeftFoot  2.17236 0.626227 -5.39557
LeftToes  4.7643e-008 1.47522e-008 1.32869e-009
213
root  -3.97024 40.8151 -2.1907 -4.0994 -67.5798 5.39569
RightUpLeg  4.4904 -2.97501 0.942999
RightLeg  -4.27805 -43.4009 4.98166
RightFoot  -2.99194 -0.0348709 0.203046
RightToes  -3.10678e-008 1.75238e-005 3.56266e-009
Spine  9.11583 4.34511 -3.34991
Spine1  -8.30362 3.63328 6.20573
HEad  3.59664 3.93013 -2.01755
LeftShoulder1  0.402132 1.74824 -16.1209
LeftArm  -23.8817 -28.5004 -38.123
LeftForeArm  136.14 -76.8272 -131.911
LeftHand  -0.687122 -4.91582 8.00567
RightShoulder  1.66922 2.5901 21.1173
RightArm  -3.06719 -15.2487 28.8289
RightForeArm  28.0309 67.748 25.6083
RightHand  -0.339569 8.42703 -3.22711
LeftUpLeg  -2.34031 0.281504 3.11119
LeftLeg  -0.270406 -3.92902 -0.276234
LeftFoot  2.19837 0.6546 -5.62463
LeftToes  4.7643e-008 1.47522e-008 1.32869e-009
214
root  -4.03308 40.8081 -2.20615 -4.12259 -65.7914 5.58844
RightUpLeg  4.47445 -3.21555 0.783915
RightLeg  -4.15825 -44.8059 5.02741
RightFoot  -3.18602 -0.0582069 0.524323
RightToes  -3.10678e-008 1.75238e-005 3.56266e-009
Spine  9.01532 4.52994 -3.62125
Spine1  -8.54665 3.80135 6.38877
HEad  2.29087 3.06958 -2.37542
LeftShoulder1  0.380065 1.85608 -16.2903
LeftArm  -26.7437 -28.8513 -37.0459
LeftForeArm  135.373 -76.8541 -131.618
LeftHand  -0.832191 -5.25127 9.35117
RightShoulder  1.73376 2.83305 21.0795
RightArm  -3.52396 -18.0305 28.0729
RightForeArm  26.9054 66.6037 24.0955
RightHand  -0.375052 8.31081 -3.54898
LeftUpLeg  -2.67802 0.018776 2.84447
LeftLeg  -0.31115 -5.28054 -0.254005
LeftFoot  2.34695 0.687335 -5.84318
LeftToes  4.7643e-008 1.47522e-008 1.32869e-009
215
root  -4.09194 40.8092 -2.20636 -4.00168 -64.5636 5.55945
RightUpLeg  4.65848 -3.23815 0.797271
RightLeg  -4.57566 -45.9432 5.34127
RightFoot  -3.21455 -0.0669385 0.633538
RightToes  -3.10678e-008 1.75238e-005 3.56266e-009
Spine  9.32277 4.81193 -3.1184
Spine1  -9.1896 4.19488 5.61981
HEad  0.92003 1.97446 -2.82941
LeftShoulder1  0.374569 1.89209 -16.5012
LeftArm  -30.3985 -29.5184 -35.99
LeftForeArm  133.415 -77.0641 -130.312
LeftHand  -0.569125 -4.66362 6.88808
RightShoulder  1.60248 2.4098 20.8014
RightArm  -3.84693 -20.4386 28.1127
RightForeArm  25.8222 65.4812 22.7681
RightHand  -0.419035 7.96328 -4.00889
LeftUpLeg  -2.8131 -0.064429 2.75296
LeftLeg  -0.4288 -6.38567 -0.241442
LeftFoot  2.43408 0.723699 -6.11072
LeftToes  4.7643e-008 1.47522e-008 1.32869e-009
216
root  -4.15181 40.8132 -2.21217 -3.75742 -63.3792 5.54276
RightUpLeg  4.81969 -3.23722 0.816359
RightLeg  -5.35182 -46.9806 5.93426
RightFoot  -3.15441 -0.0801809 0.821383
RightToes  -3.10678e-008 1.75238e-005 3.56266e-009
Spine  9.22433 4.95878 -3.61547
Spine1  -9.64207 4.28335 6.06653
HEad  -0.174981 0.600473 -3.0662
LeftShoulder1  0.310312 2.18782 -16.7416
LeftArm  -33.5854 -29.5885 -34.735
LeftForeArm  133.048 -76.9953 -130.502
LeftHand  -0.60809 -3.93534 7.79971
RightShoulder  1.5387 2.22525 20.5481
RightArm  -4.04504 -22.6887 28.1272
RightForeArm  24.9297 64.6067 21.8254
RightHand  -0.43269 7.37654 -4.2848
LeftUpLeg  -3.1274 -0.154551 2.6733
LeftLeg  -0.493665 -7.50614 -0.230961
LeftFoot  2.56745 0.76696 -6.41223
LeftToes  4.7643e-008 1.47522e-008 1.32869e-009
217
root  -4.21167 40.8273 -2.21427 -3.73245 -62.7802 5.7785
RightUpLeg  4.85787 -3.20768 0.759874
RightLeg  -5.85642 -47.4707 6.25409
RightFoot  -3.089 -0.0933799 1.01066
RightToes  -3.10678e-008 1.75238e-005 3.56266e-009
Spine  10.5888 5.03358 -2.85386
Spine1  -12.1404 4.59443 4.01545
HEad  -1.02396 0.0183687 -2.15529
LeftShoulder1  0.178553 2.7124 -15.7885
LeftArm  -34.2445 -29.7193 -34.5737
LeftForeArm  135.649 -76.8478 -131.702
LeftHand  -0.803889 -4.49017 9.73686
RightShoulder  1.56827 2.23864 21.0251
RightArm  -3.77554 -25.7054 28.1629
RightForeArm  25.9616 64.7288 21.833
RightHand  -0.459345 7.33041 -4.54146
LeftUpLeg  -3.19802 -0.163525 2.59104
LeftLeg  -0.902756 -8.17739 -0.280359
LeftFoot  2.84192 0.807168 -6.62255
LeftToes  4.7643e-008 1.47522e-008 1.32869e-009
218
root  -4.23389 40.8373 -2.21037 -3.35403 -62.3505 5.74466
RightUpLeg  4.66751 -3.16797 0.768283
RightLeg  -6.25742 -47.8452 6.60308
RightFoot  -3.03693 -0.102894 1.14479
RightToes  -3.10678e-008 1.75238e-005 3.56266e-009
Spine  11.0578 5.33888 -3.18755
Spine1  -13.5809 4.87208 4.08736
HEad  -1.83648 -0.186606 -2.26088
LeftShoulder1  0.213016 2.57488 -16.1404
LeftArm  -34.2097 -30.1159 -33.8052
LeftForeArm  138.828 -76.2254 -134.705
LeftHand  -0.767825 -4.82696 8.99737
RightShoulder  1.43646 1.91378 20.1891
RightArm  -3.49414 -27.4199 29.2364
RightForeArm  27.4437 65.1908 22.1911
RightHand  -0.434635 7.34218 -4.32901
LeftUpLeg  -3.59461 -0.21736 2.58945
LeftLeg  -0.948773 -8.41827 -0.284028
LeftFoot  2.93564 0.865828 -7.05117
LeftToes  4.7643e-008 1.47522e-008 1.32869e-009
219
root  -4.24165 40.8354 -2.19716 -3.03445 -61.8295 5.66223
RightUpLeg  4.61461 -3.20029 0.743976
RightLeg  -6.76558 -48.272 7.08428
RightFoot  -3.02769 -0.107248 1.20081
RightToes  -3.10678e-008 1.75238e-005 3.56266e-009
Spine  12.3578 5.09232 -2.86469
Spine1  -15.9681 4.69136 3.0076
HEad  -2.43716 0.406771 -1.68028
LeftShoulder1  0.203192 2.6006 -15.6656
LeftArm  -34.0875 -30.9281 -33.5376
LeftForeArm  140.575 -75.8679 -136.266
LeftHand  -0.633087 -4.81648 7.49883
RightShoulder  1.46102 1.99448 20.2447
RightArm  -3.27623 -28.882 30.4115
RightForeArm  27.9289 66.4014 23.6702
RightHand  -0.382689 8.1925 -3.63867
LeftUpLeg  -3.93037 -0.219997 2.59141
LeftLeg  -0.916045 -8.94453 -0.341716
LeftFoot  2.95266 0.889137 -7.22828
LeftToes  4.7643e-008 1.47522e-008 1.32869e-009
